<?xml version="1.0" encoding="utf-8"?>
<!-- Generator: Adobe Illustrator 22.1.0, SVG Export Plug-In . SVG Version: 6.00 Build 0)  -->
<svg version="1.1" id="Layer_1" xmlns="http://www.w3.org/2000/svg" xmlns:xlink="http://www.w3.org/1999/xlink" x="0px" y="0px"
	 viewBox="0 0 512 512" style="enable-background:new 0 0 512 512;" xml:space="preserve">
<style type="text/css">
	.st0{fill:#1D1D1D;}
	.st1{fill:#BCBCBC;}
</style>
<g id="instagram">
	<rect class="st0" width="512" height="512"/>
	<path class="st1" d="M254.5,16.5c-132,0-239,107-239,239s107,239,239,239s239-107,239-239S386.5,16.5,254.5,16.5z M412.9,413.9
		c-42.3,42.3-98.6,65.6-158.4,65.6s-116.1-23.3-158.4-65.6s-65.6-98.6-65.6-158.4S53.8,139.4,96.1,97.1s98.6-65.6,158.4-65.6
		s116.1,23.3,158.4,65.6s65.6,98.6,65.6,158.4S455.2,371.6,412.9,413.9z"/>
	<path class="st1" d="M171.9,142.5h168c16,0,28.6,12.6,28.6,28.6v168c0,16-12.7,29.4-28.6,29.4h-168c-16,0-29.4-13.5-29.4-29.4v-168
		C142.5,155.1,155.9,142.5,171.9,142.5L171.9,142.5z M307.5,167.5c-5.6,0-10,4.2-10,9.8v24.4c0,5.6,4.4,9.8,10,9.8h25.5
		c5.6,0,10.4-4.2,10.4-9.8v-24.4c0-5.6-4.8-9.8-10.4-9.8H307.5L307.5,167.5z M343.5,237.5h-20.1c1.9,6,2.9,12.7,2.9,19.5
		c0,37.6-31.5,68.1-70.3,68.1c-38.8,0-70.3-30.5-70.3-68.1c0-6.7,1-13.4,2.9-19.4h-21.2v95.6c0,4.9,4.5,9.4,9.5,9.4h157.4
		c4.9,0,9.1-4.4,9.1-9.4V237.5L343.5,237.5z M256.1,210.6c-25.1,0-45.4,19.7-45.4,44s20.3,44,45.4,44c25.1,0,45.4-19.7,45.4-44
		S281.2,210.6,256.1,210.6z"/>
</g>
</svg>
