<?xml version="1.0" encoding="utf-8"?>
<!-- Generator: Adobe Illustrator 22.1.0, SVG Export Plug-In . SVG Version: 6.00 Build 0)  -->
<svg version="1.1" id="Layer_1" xmlns="http://www.w3.org/2000/svg" xmlns:xlink="http://www.w3.org/1999/xlink" x="0px" y="0px"
	 viewBox="0 0 512 512" style="enable-background:new 0 0 512 512;" xml:space="preserve">
<style type="text/css">
	.st0{fill:#1D1D1D;}
	.st1{fill:#BCBCBC;}
</style>
<rect class="st0" width="512" height="512"/>
<g id="facebook">
	<path class="st1" d="M278.5,219.5v-27c0-12.2,2.9-18,21.9-18h23.1v-45h-39c-48.5,0-64,21.6-64,59.7v30.3h-33v46h33v136h58v-136
		h40.2l5.4-46H278.5z"/>
	<path class="st1" d="M254.5,16.5c-132,0-239,107-239,239s107,239,239,239s239-107,239-239S386.5,16.5,254.5,16.5z M412.9,413.9
		c-42.3,42.3-98.6,65.6-158.4,65.6s-116.1-23.3-158.4-65.6s-65.6-98.6-65.6-158.4S53.8,139.4,96.1,97.1s98.6-65.6,158.4-65.6
		s116.1,23.3,158.4,65.6s65.6,98.6,65.6,158.4S455.2,371.6,412.9,413.9z"/>
</g>
</svg>
