<?xml version="1.0" encoding="utf-8"?>
<!-- Generator: Adobe Illustrator 22.1.0, SVG Export Plug-In . SVG Version: 6.00 Build 0)  -->
<svg version="1.1" id="Calque_1" xmlns="http://www.w3.org/2000/svg" xmlns:xlink="http://www.w3.org/1999/xlink" x="0px" y="0px"
	 viewBox="0 0 512 512" style="enable-background:new 0 0 512 512;" xml:space="preserve">
<style type="text/css">
	.st0{fill:#1D1D1D;}
	.st1{fill:#BCBCBC;}
</style>
<rect class="st0" width="512" height="512"/>
<g>
	<path class="st1" d="M425.6,86.3C382.2,43,322.3,16,256,16c-66.3,0-126.2,27-169.7,70.3C42.9,129.7,16,189.8,16,256.1
		c0,66.2,26.8,126.2,70.3,169.6C129.8,469,189.7,496,256,496s126.2-27,169.7-70.3c43.4-43.4,70.3-103.5,70.3-169.6
		C495.9,189.8,469.1,129.7,425.6,86.3z M412.5,412.4c-40.1,40-95.4,64.8-156.5,64.8c-61.1,0-116.4-24.8-156.4-64.8
		c-40-40-64.8-95.4-64.8-156.4c0-61.1,24.8-116.5,64.8-156.5c40-40,95.3-64.7,156.4-64.7c61.1,0,116.4,24.7,156.5,64.7
		c40,40,64.7,95.4,64.7,156.5C477.2,317,452.5,372.4,412.5,412.4z"/>
	<path class="st1" d="M377,316.2V315h-1.2c-3.1-5-6-5-7.8-5h-0.1c-12.8-5-23.6-11.2-31.8-21.8c-4.5-6-8.5-11.8-11.2-18.5
		c-1.1-3.1-1.1-7.7,0.4-7.7h0.3c2.3-5,6.4-5.2,10.9-7c5-1.6,10.4-3.6,14.9-7.5c0.9-0.5,1.7-1.4,2.3-2.7c0-0.3,0.3-0.6,0.4-1
		c0.3-1.1,0.3-2.5-0.4-4c-1.2-2.7-3.5-3.8-5.1-4.9c-2.9-1.6-6.2-1.6-9-0.8c-3.1,1.1-5.6,2.1-7.8,2.3c-0.1,0-0.1,0.3-0.1,0.3
		c-3.3,0.4-6.6,0.5-9-0.3c0-0.4,0-1.2-0.3-2c0-5.3,1.3-10.9,1.3-16.9c0.3-8.8,0.4-17.8,0.4-26.8v-0.3c-5-15.3-13.7-28.4-26.2-37.3
		c-9-6.2-20.4-10-31.4-10.8c-3.7-0.4-7.7-0.7-11.4-0.7c-14.7,0.3-29.9,4.1-41.7,13.6c-9,6.9-15.3,16.2-20.3,26.7v0.1
		c-5,10.6-4.3,22.2-3.6,32.7c0.1,7.3,0.7,14.5,0.2,21.5c0,0.1-0.1-1.6-0.4-1.3c-3.3,0.5-7,2-10.6-2c0,0,0,0-0.1,0c-2.5,0-4.9,0-8,0
		c0,0,0,0-0.3,0c-2.8,0-5.7,0-7.8,0h1.6v3c-5,1.2-5.2,2.5-5.4,6.1c0,0.1-0.9-0.1-0.7-0.1h0.1c0.4,0,1.8,4,2.9,5c0.9,0.9,3,2.2,3,2.6
		v0.3c5,3.6,11.3,5,16.4,7.2c3.7,1.6,6.6,4,7.3,7.2c1.1,3.9-0.7,8.4-3,12.6c-5.7,11.6-14.5,19.5-25.3,26.9
		c-5.4,3.7-11.9,6.3-18.5,6.3h-0.1c-1.5,5-4.8,3-6.6,6c-0.1,0.1-0.4,1.4-0.4,1.8c-0.5,1.9,0,4.4,1.1,5.6c0.8,1.1,1.9,2,2.9,2.5
		c5.4,3.3,11.7,4.7,17.1,6.1c4.1,1.1,7.8,1.5,10.8,2.7c0.1,0.3,0.5,1.2,1.2,3c1.1,3.1,1.5,6.8,2.7,10.5c0.3,0.9,1.2,1.7,2.3,2
		c2.5,0.7,3.9-0.3,4.1-0.3c0,0,0.1,0,0.1-0.1c9.4-1.5,18.7-2.9,27.1-0.8c9,2.3,16.6,8.4,25.5,13.7c5.7,3.7,12.5,7.2,20.2,7.4
		c5.8,0.4,11.6,0,17.3-0.4c4.9-0.4,9.4-2.1,13.6-4.5l0.3-0.3c9.2-5,17.1-11.4,26.2-15.4c2.9-0.9,6.6-1.2,10.6-1.5
		c7.4-0.1,14.9,0.9,22.2,0.9h0.8c1.1,0,2.1-0.5,2.5-1c0.5-0.7,0.5-1.2,0.8-1.6c0.2-0.4,0.3-0.6,0.2-0.6c0.1-0.1,0.1-0.2,0.2-0.3
		c1.2-4.5,2.1-10.1,4.1-12.5c1.1-1.1,2.7-3.1,4.7-3.1h0.5c6.2,0,12.1-1.4,17.5-3.3c0-0.3,0,0.5,0.3,0.5c1.9-0.8,5.4-1.5,7.4-4.2
		C379.7,320.5,377,317.7,377,316.2L377,316.2z"/>
</g>
</svg>
