<?xml version="1.0" encoding="utf-8"?>
<!-- Generator: Adobe Illustrator 22.1.0, SVG Export Plug-In . SVG Version: 6.00 Build 0)  -->
<svg version="1.1" id="Calque_1" xmlns="http://www.w3.org/2000/svg" xmlns:xlink="http://www.w3.org/1999/xlink" x="0px" y="0px"
	 viewBox="0 0 32 32" style="enable-background:new 0 0 32 32;" xml:space="preserve">
<style type="text/css">
	.st0{fill:#1D1D1D;}
	.st1{fill:#BCBCBC;}
</style>
<g>
	<rect class="st0" width="32" height="32"/>
</g>
<g>
	<path class="st1" d="M16,5c2.8,0,5,2.2,5,5s-2.2,5-5,5s-5-2.2-5-5S13.2,5,16,5 M16,4c-3.3,0-6,2.7-6,6s2.7,6,6,6s6-2.7,6-6
		S19.3,4,16,4L16,4z"/>
</g>
<g>
	<path class="st1" d="M16.5,21c7.4,0,11.5,2,11.5,3s-4.1,3-11.5,3S5,25,5,24S9.1,21,16.5,21 M16.5,20C9.6,20,4,21.8,4,24
		s5.6,4,12.5,4S29,26.2,29,24S23.4,20,16.5,20L16.5,20z"/>
</g>
</svg>
